<?xml version="1.0" encoding="UTF-8"?>
<svg width="83px" height="61px" viewBox="0 0 83 61" version="1.1" xmlns="http://www.w3.org/2000/svg" xmlns:xlink="http://www.w3.org/1999/xlink">
    <!-- Generator: Sketch 45.2 (43514) - http://www.bohemiancoding.com/sketch -->
    <title>camera</title>
    <desc>Created with Sketch.</desc>
    <defs>
        <path d="M5.69452761,10 L15.6494393,10 L15.6494393,10 C18.6428743,10 21.2350494,7.92179655 21.8860162,5 L21.8860162,5 L21.8860162,5 C22.536983,2.07820345 25.1291581,5.55716008e-16 28.1225931,2.66453526e-15 L49.7850035,0 L49.7850035,8.8817842e-16 C52.6850484,3.55448819e-16 55.1449911,2.12980866 55.5600356,5 L55.5600356,5 L55.5600356,5 C55.9750802,7.87019134 58.4350229,10 61.3350677,10 L72.3054724,10 L72.3054724,10 C75.0668961,10 77.3054724,12.2385763 77.3054724,15 C77.3054724,15.2162467 77.2914436,15.4322656 77.2634744,15.6466959 L72.5678223,51.6466959 L72.5678223,51.6466959 C72.2429955,54.1370347 70.121254,56 67.6098202,56 L10.3901798,56 L10.3901798,56 C7.87874596,56 5.75700453,54.1370347 5.43217773,51.6466959 L0.736525555,15.6466959 L0.736525555,15.6466959 C0.37936526,12.908467 2.30960277,10.3991582 5.04783169,10.0419979 C5.262262,10.0140288 5.47828092,10 5.69452761,10 Z" id="path-1"></path>
    </defs>
    <g id="Page-1" stroke="none" stroke-width="1" fill="none" fill-rule="evenodd">
        <g id="Desktop" transform="translate(-728.000000, -1019.000000)">
            <g id="Second" transform="translate(4.000000, 701.000000)">
                <g id="icons" transform="translate(723.000000, 166.000000)">
                    <g id="Sprzęt" transform="translate(1.000000, 152.000000)">
                        <g id="camera">
                            <path d="M5.69452761,15 L15.6494393,15 L15.6494393,15 C18.6428743,15 21.2350494,12.9217966 21.8860162,10 L21.8860162,10 L21.8860162,10 C22.536983,7.07820345 25.1291581,5 28.1225931,5 L49.7850035,5 L49.7850035,5 C52.6850484,5 55.1449911,7.12980866 55.5600356,10 L55.5600356,10 L55.5600356,10 C55.9750802,12.8701913 58.4350229,15 61.3350677,15 L72.3054724,15 L72.3054724,15 C75.0668961,15 77.3054724,17.2385763 77.3054724,20 C77.3054724,20.2162467 77.2914436,20.4322656 77.2634744,20.6466959 L72.5678223,56.6466959 L72.5678223,56.6466959 C72.2429955,59.1370347 70.121254,61 67.6098202,61 L10.3901798,61 L10.3901798,61 C7.87874596,61 5.75700453,59.1370347 5.43217773,56.6466959 L0.736525555,20.6466959 L0.736525555,20.6466959 C0.37936526,17.908467 2.30960277,15.3991582 5.04783169,15.0419979 C5.262262,15.0140288 5.47828092,15 5.69452761,15 Z" id="Rectangle-4" fill-opacity="0.639999986" fill="#52C6F6"></path>
                            <g id="Group-9" transform="translate(5.000000, 0.000000)">
                                <g id="Rectangle-4">
                                    <use fill="#FFFFFF" fill-rule="evenodd" xlink:href="#path-1"></use>
                                    <path stroke="#333030" stroke-width="3" d="M5.69452761,11.5 C5.54315493,11.5 5.39194168,11.5098201 5.24184047,11.5293986 C3.32508022,11.7794108 1.97391397,13.5359269 2.22392617,15.4526871 L6.91957835,51.4526871 C7.14695711,53.1959243 8.63217611,54.5 10.3901798,54.5 L67.6098202,54.5 C69.3678239,54.5 70.8530429,53.1959243 71.0804217,51.4526871 L75.7760738,15.4526871 C75.7956522,15.3025859 75.8054724,15.1513727 75.8054724,15 C75.8054724,13.0670034 74.238469,11.5 72.3054724,11.5 L61.3350677,11.5 C57.6895228,11.5 54.5972149,8.82269203 54.0754769,5.21467489 C53.7671258,3.08230935 51.9395483,1.5 49.7850035,1.5 L28.1225931,1.5 C25.8318986,1.5 23.8482639,3.09032326 23.3501184,5.32619723 C22.5463303,8.93391636 19.3456147,11.5 15.6494393,11.5 L5.69452761,11.5 Z"></path>
                                </g>
                                <path d="M8,6.5 L15.5,6.5" id="Path-3" stroke="#2D2929" stroke-width="3" stroke-linecap="round"></path>
                                <circle id="Oval-2" stroke="#393535" stroke-width="3" cx="39" cy="33" r="14.5"></circle>
                            </g>
                        </g>
                    </g>
                </g>
            </g>
        </g>
    </g>
</svg>