<?xml version="1.0" encoding="UTF-8"?>
<svg width="55px" height="80px" viewBox="0 0 55 80" version="1.1" xmlns="http://www.w3.org/2000/svg" xmlns:xlink="http://www.w3.org/1999/xlink">
    <!-- Generator: Sketch 45.2 (43514) - http://www.bohemiancoding.com/sketch -->
    <title>certif</title>
    <desc>Created with Sketch.</desc>
    <defs>
        <polygon id="path-1" points="6.94871568 41.9996774 6.94871568 76.0462181 14.1805606 71.8847052 21.4124055 75.5689736 21.4124055 41.998104"></polygon>
        <polygon id="path-2" points="31.4487157 41.9996774 31.4487157 76.0462181 38.6805606 71.8847052 45.9124055 75.5689736 45.9124055 41.998104"></polygon>
        <path d="M6.46475721,14.5850309 L6.46475721,7.88095961 C6.46475721,7.10776096 7.09155856,6.48095961 7.86475721,6.48095961 L7.86475721,6.48095961 L14.5486373,6.48095961 L17.8730912,0.722836526 L17.8730912,0.722836526 C18.2596905,0.053226853 19.1159171,-0.176198364 19.7855267,0.210400961 L19.7855267,0.210400961 L25.5739367,3.55234099 L31.3320597,0.227887073 L31.3320597,0.227887073 C32.0016694,-0.158712251 32.857896,0.0707129658 33.2444953,0.740322639 L33.2444953,0.740322639 L36.5588536,6.48095961 L43.1875702,6.48095961 C43.9607689,6.48095961 44.5875702,7.10776096 44.5875702,7.88095961 L44.5875702,14.5298674 L50.3759801,17.8718075 C51.0455898,18.2584068 51.275015,19.1146333 50.8884157,19.784243 L47.5639618,25.5423661 L50.9059018,31.330776 C51.2925011,32.0003857 51.0630759,32.8566123 50.3934662,33.2432116 L44.5875702,36.5952472 L44.5875702,43.2993185 L44.5875702,43.2993185 C44.5875702,44.0725171 43.9607689,44.6993185 43.1875702,44.6993185 L36.5036902,44.6993185 L33.1792362,50.4574416 L33.1792362,50.4574416 C32.7926369,51.1270513 31.9364103,51.3564765 31.2668007,50.9698771 L25.4783908,47.6279371 L19.7202677,50.952391 L19.7202677,50.952391 C19.050658,51.3389904 18.1944314,51.1095651 17.8078321,50.4399555 L14.4934738,44.6993185 L7.86475721,44.6993185 C7.09155856,44.6993185 6.46475721,44.0725171 6.46475721,43.2993185 L6.46475721,36.6504107 L0.676347291,33.3084706 C0.00673761818,32.9218713 -0.222687599,32.0656448 0.163911726,31.3960351 L3.48836564,25.637912 L0.146425613,19.8495021 C-0.240173712,19.1798924 -0.0107484946,18.3236658 0.658861178,17.9370665 L6.46475721,14.5850309 Z" id="path-3"></path>
        <ellipse id="path-4" cx="25.2" cy="25.2631579" rx="14" ry="14.0350877"></ellipse>
    </defs>
    <g id="Page-1" stroke="none" stroke-width="1" fill="none" fill-rule="evenodd">
        <g id="Desktop" transform="translate(-740.000000, -1160.000000)">
            <g id="Second" transform="translate(4.000000, 701.000000)">
                <g id="icons" transform="translate(723.000000, 166.000000)">
                    <g id="Certyfikaty" transform="translate(13.000000, 293.000000)">
                        <g id="certif">
                            <g id="Group-Copy" transform="translate(0.000000, 3.105263)">
                                <polygon id="Path-2" fill-opacity="0.639999986" fill="#52C6F6" transform="translate(12.180561, 59.022161) rotate(-345.000000) translate(-12.180561, -59.022161) " points="4.94871568 41.9996774 4.94871568 76.0462181 12.1805606 71.8847052 19.4124055 75.5689736 19.4124055 41.998104"></polygon>
                                <polygon id="Path-2" fill-opacity="0.639999986" fill="#52C6F6" transform="translate(38.680561, 59.022161) scale(-1, 1) rotate(-345.000000) translate(-38.680561, -59.022161) " points="31.4487157 41.9996774 31.4487157 76.0462181 38.6805606 71.8847052 45.9124055 75.5689736 45.9124055 41.998104"></polygon>
                                <path d="M6.46475721,14.5850309 L6.46475721,7.88095961 C6.46475721,7.10776096 7.09155856,6.48095961 7.86475721,6.48095961 L7.86475721,6.48095961 L14.5486373,6.48095961 L17.8730912,0.722836526 L17.8730912,0.722836526 C18.2596905,0.053226853 19.1159171,-0.176198364 19.7855267,0.210400961 L19.7855267,0.210400961 L25.5739367,3.55234099 L31.3320597,0.227887073 L31.3320597,0.227887073 C32.0016694,-0.158712251 32.857896,0.0707129658 33.2444953,0.740322639 L33.2444953,0.740322639 L36.5588536,6.48095961 L43.1875702,6.48095961 C43.9607689,6.48095961 44.5875702,7.10776096 44.5875702,7.88095961 L44.5875702,14.5298674 L50.3759801,17.8718075 C51.0455898,18.2584068 51.275015,19.1146333 50.8884157,19.784243 L47.5639618,25.5423661 L50.9059018,31.330776 C51.2925011,32.0003857 51.0630759,32.8566123 50.3934662,33.2432116 L44.5875702,36.5952472 L44.5875702,43.2993185 C44.5875702,44.0725171 43.9607689,44.6993185 43.1875702,44.6993185 L36.5036902,44.6993185 L33.1792362,50.4574416 C32.7926369,51.1270513 31.9364103,51.3564765 31.2668007,50.9698771 L25.4783908,47.6279371 L19.7202677,50.952391 C19.050658,51.3389904 18.1944314,51.1095651 17.8078321,50.4399555 L14.4934738,44.6993185 L7.86475721,44.6993185 C7.09155856,44.6993185 6.46475721,44.0725171 6.46475721,43.2993185 L6.46475721,36.6504107 L0.676347291,33.3084706 C0.00673761818,32.9218713 -0.222687599,32.0656448 0.163911726,31.3960351 L3.48836564,25.637912 L0.146425613,19.8495021 C-0.240173712,19.1798924 -0.0107484946,18.3236658 0.658861178,17.9370665 L6.46475721,14.5850309 Z" id="Combined-Shape" fill-opacity="0.639999986" fill="#52C6F6"></path>
                                <ellipse id="Oval-3" fill="#3599B0" cx="22.2" cy="27.2631579" rx="14" ry="14.0350877"></ellipse>
                            </g>
                            <g id="Group" transform="translate(3.900000, 0.000000)">
                                <g id="Path-2" transform="translate(14.180561, 59.022161) rotate(-345.000000) translate(-14.180561, -59.022161) ">
                                    <use fill="#FFFFFF" fill-rule="evenodd" xlink:href="#path-1"></use>
                                    <path stroke="#333030" stroke-width="3" d="M8.44871568,43.4995142 L8.44871568,73.452432 L14.1370692,70.1791101 L19.9124055,73.1213591 L19.9124055,43.4982672 L8.44871568,43.4995142 Z"></path>
                                </g>
                                <g id="Path-2" transform="translate(38.680561, 59.022161) scale(-1, 1) rotate(-345.000000) translate(-38.680561, -59.022161) ">
                                    <use fill="#FFFFFF" fill-rule="evenodd" xlink:href="#path-2"></use>
                                    <path stroke="#333030" stroke-width="3" d="M32.9487157,43.4995142 L32.9487157,73.452432 L38.6370692,70.1791101 L44.4124055,73.1213591 L44.4124055,43.4982672 L32.9487157,43.4995142 Z"></path>
                                </g>
                                <g id="Combined-Shape">
                                    <use fill="#FFFFFF" fill-rule="evenodd" xlink:href="#path-3"></use>
                                    <path stroke="#333030" stroke-width="3" d="M1.49546372,19.1861046 L5.22041645,25.637912 L1.51294983,32.0594325 L7.96475721,35.7843853 L7.96475721,43.1993185 L15.3594992,43.1993185 L19.0568702,49.6033529 L25.4783908,45.8958863 L31.9301981,49.620839 L35.6376647,43.1993185 L43.0875702,43.1993185 L43.0875702,35.7292218 L49.5568637,31.9941735 L45.831911,25.5423661 L49.5393776,19.1208456 L43.0875702,15.3958928 L43.0875702,7.98095961 L35.6928282,7.98095961 L31.9954572,1.57692518 L25.5739367,5.28439179 L19.1221293,1.55943907 L15.4146627,7.98095961 L7.96475721,7.98095961 L7.96475721,15.4510563 L1.49546372,19.1861046 Z"></path>
                                </g>
                                <g id="Oval-3">
                                    <use fill="#FFFFFF" fill-rule="evenodd" xlink:href="#path-4"></use>
                                    <ellipse stroke="#333030" stroke-width="3" cx="25.2" cy="25.2631579" rx="12.5" ry="12.5350877"></ellipse>
                                </g>
                            </g>
                        </g>
                    </g>
                </g>
            </g>
        </g>
    </g>
</svg>