<?xml version="1.0" encoding="UTF-8"?>
<svg width="84px" height="68px" viewBox="0 0 84 68" version="1.1" xmlns="http://www.w3.org/2000/svg" xmlns:xlink="http://www.w3.org/1999/xlink">
    <!-- Generator: Sketch 45.2 (43514) - http://www.bohemiancoding.com/sketch -->
    <title>cloud</title>
    <desc>Created with Sketch.</desc>
    <defs>
        <path d="M24.0341508,20.277893 C13.8079346,21.9351857 6,30.8057724 6,41.5 C6,52.8698795 14.8256977,62.1784068 26,62.948489 L26,63 L63,63 L63,62.9943004 C74.6431686,62.7286014 84,53.2070033 84,41.5 C84,31.1606115 76.7016105,22.5258532 66.9755959,20.4664894 C66.4363325,9.07232042 57.0276432,0 45.5,0 C34.0360307,0 24.6676716,8.97237371 24.0341508,20.277893 Z" id="path-1"></path>
    </defs>
    <g id="Page-1" stroke="none" stroke-width="1" fill="none" fill-rule="evenodd">
        <g id="Desktop" transform="translate(-727.000000, -867.000000)">
            <g id="Second" transform="translate(4.000000, 701.000000)">
                <g id="icons" transform="translate(723.000000, 166.000000)">
                    <g id="Doswiadczenie">
                        <g id="cloud">
                            <path d="M18.0341508,25.277893 C7.80793464,26.9351857 0,35.8057724 0,46.5 C0,57.8698795 8.82569767,67.1784068 20,67.948489 L20,68 L57,68 L57,67.9943004 C68.6431686,67.7286014 78,58.2070033 78,46.5 C78,36.1606115 70.7016105,27.5258532 60.9755959,25.4664894 C60.4363325,14.0723204 51.0276432,5 39.5,5 C28.0360307,5 18.6676716,13.9723737 18.0341508,25.277893 Z" id="Combined-Shape" fill-opacity="0.639999986" fill="#52C6F6"></path>
                            <g id="Combined-Shape">
                                <use fill="#FFFFFF" fill-rule="evenodd" xlink:href="#path-1"></use>
                                <path stroke="#333030" stroke-width="3" d="M26.799078,61.5 L62.733125,61.5 L62.9657787,61.4946908 C73.8137215,61.247139 82.5,52.3722756 82.5,41.5 C82.5,32.0066528 75.8337544,23.8753513 66.6648782,21.9339547 L65.5320166,21.6940852 L65.4772731,20.537402 C64.9740049,9.90378113 56.1874365,1.5 45.5,1.5 C34.8778712,1.5 26.1233799,9.80477634 25.5318012,20.3618159 L25.4643409,21.5656825 L24.2741146,21.7585743 C14.66088,23.3165254 7.5,31.6552552 7.5,41.5 C7.5,52.0259173 15.6597083,60.7323252 26.1031286,61.4520383 L26.799078,61.5 Z"></path>
                            </g>
                        </g>
                    </g>
                </g>
            </g>
        </g>
    </g>
</svg>