<?xml version="1.0" encoding="UTF-8"?>
<svg width="105px" height="74px" viewBox="0 0 105 74" version="1.1" xmlns="http://www.w3.org/2000/svg" xmlns:xlink="http://www.w3.org/1999/xlink">
    <!-- Generator: Sketch 45.1 (43504) - http://www.bohemiancoding.com/sketch -->
    <title>o!dron</title>
    <desc>Created with Sketch.</desc>
    <defs>
        <polygon id="path-1" points="0.0482022472 73.9899774 16.9899438 73.9899774 16.9899438 0.15317833 0.0482022472 0.15317833 0.0482022472 73.9899774"></polygon>
    </defs>
    <g id="Page-1" stroke="none" stroke-width="1" fill="none" fill-rule="evenodd">
        <g id="Desktop" transform="translate(-45.000000, -39.000000)">
            <g id="Top">
                <g id="o!dron" transform="translate(45.000000, 39.000000)">
                    <path d="M4.2561236,24.0788984 L4.2561236,36.898605 C4.2561236,40.0625643 5.02078652,42.1714808 8.21292135,42.1714808 C11.4050562,42.1714808 12.1700562,40.0625643 12.1700562,36.898605 L12.1700562,24.0788984 C12.1700562,20.9151061 11.4050562,18.9705598 8.21292135,18.9705598 C5.02078652,18.9705598 4.2561236,20.9151061 4.2561236,24.0788984 Z M16.4260112,25.1334402 L16.4260112,35.8440632 C16.4260112,41.7762573 14.2648315,45.6319413 8.21292135,45.6319413 C2.11146067,45.6319413 0,41.8582754 0,35.8440632 L0,25.1334402 C0,19.1188939 2.11146067,15.5102664 8.21292135,15.5102664 C14.2648315,15.5102664 16.4260112,19.201246 16.4260112,25.1334402 L16.4260112,25.1334402 Z" id="Fill-1" fill="#FFFFFF"></path>
                    <path d="M20.7905056,45.3354402 L25.0466292,45.3354402 L25.0466292,41.1169391 L20.7905056,41.1169391 L20.7905056,45.3354402 Z M25.0466292,15.8067675 L24.2819663,39.0078555 L21.8546629,39.0078555 L20.7905056,15.8067675 L25.0466292,15.8067675 L25.0466292,15.8067675 Z" id="Fill-2" fill="#FFFFFF"></path>
                    <path d="M36.6500562,18.9705598 L34.3891011,18.9705598 L34.3891011,42.1714808 L36.7333146,42.1714808 C41.2388764,42.1714808 40.9894382,39.1396524 40.9894382,34.7895214 L40.9894382,25.2981445 C40.9894382,21.2610519 40.8729775,18.9705598 36.6500562,18.9705598 Z M36.6999438,45.3354402 L30.1329775,45.3354402 L30.1329775,15.8067675 L36.7333146,15.8067675 C42.9677528,15.8067675 45.2455618,18.0476479 45.2455618,24.2436027 L45.2455618,35.8440632 C45.2455618,42.1222032 43.0510112,45.3354402 36.6999438,45.3354402 L36.6999438,45.3354402 Z" id="Fill-3" fill="#FFFFFF"></path>
                    <path d="M55.3129213,18.9705598 L54.2492697,18.9705598 L54.2492697,28.4619368 L55.3129213,28.4619368 C58.7546629,28.4619368 60.6335393,27.1601716 60.6335393,23.7162483 C60.6335393,20.2723251 58.7546629,18.9705598 55.3129213,18.9705598 Z M61.1652809,30.5711874 L65.9533146,45.3354402 L61.7305618,45.3354402 L57.4410674,31.6257291 L54.2492697,31.6257291 L54.2492697,45.3354402 L49.9929775,45.3354402 L49.9929775,15.8067675 L55.3129213,15.8067675 C61.3815169,15.8067675 64.8894944,17.8500361 64.8894944,23.7162483 C64.8894944,27.193079 63.6424719,29.6813499 61.1652809,30.5711874 L61.1652809,30.5711874 Z" id="Fill-4" fill="#FFFFFF"></path>
                    <path d="M73.1614045,24.0788984 L73.1614045,36.898605 C73.1614045,40.0625643 73.9260674,42.1714808 77.1182022,42.1714808 C80.3103371,42.1714808 81.0751685,40.0625643 81.0751685,36.898605 L81.0751685,24.0788984 C81.0751685,20.9151061 80.3103371,18.9705598 77.1182022,18.9705598 C73.9260674,18.9705598 73.1614045,20.9151061 73.1614045,24.0788984 Z M85.3312921,25.1334402 L85.3312921,35.8440632 C85.3312921,41.7762573 83.1699438,45.6319413 77.1182022,45.6319413 C71.016573,45.6319413 68.9052809,41.8582754 68.9052809,35.8440632 L68.9052809,25.1334402 C68.9052809,19.1188939 71.016573,15.5102664 77.1182022,15.5102664 C83.1699438,15.5102664 85.3312921,19.201246 85.3312921,25.1334402 L85.3312921,25.1334402 Z" id="Fill-5" fill="#FFFFFF"></path>
                    <polyline id="Fill-6" fill="#FFFFFF" points="94.335 25.693702 94.335 45.3354402 90.0788764 45.3354402 90.0788764 15.8067675 93.2708427 15.8067675 100.71927 34.0643883 100.71927 15.8067675 104.975225 15.8067675 104.975225 45.3354402 101.949607 45.3354402 94.335 25.693702"></polyline>
                    <path d="M17.7674157,52.3293589 L17.2247191,54.9571106 L18.3102809,54.9571106 L17.7674157,52.3293589 Z M18.7550562,57.0914176 L18.497191,55.8479503 L17.0290449,55.8479503 L16.7797753,57.0914176 L15.7299438,57.0914176 L17.2869101,50.8127765 L18.2568539,50.8127765 L19.7961236,57.0914176 L18.7550562,57.0914176 L18.7550562,57.0914176 Z" id="Fill-7" fill="#FFFFFF"></path>
                    <polyline id="Fill-8" fill="#FFFFFF" points="20.7382584 57.0914176 20.7382584 50.8127765 23.3986517 50.8127765 23.3986517 51.7032822 21.7348315 51.7032822 21.7348315 53.4846275 23.1672472 53.4846275 23.1672472 54.3751332 21.7348315 54.3751332 21.7348315 56.2005779 23.3986517 56.2005779 23.3986517 57.0914176 20.7382584 57.0914176"></polyline>
                    <path d="M26.2274157,51.7032822 L25.6135955,51.7032822 L25.6135955,53.6256117 L26.2274157,53.6256117 C26.7613483,53.6256117 26.841236,53.1847856 26.841236,52.664447 C26.841236,52.1442754 26.7613483,51.7032822 26.2274157,51.7032822 Z M27.0015169,57.0914176 L26.1739888,54.5162844 L25.6135955,54.5162844 L25.6135955,57.0914176 L24.6170225,57.0914176 L24.6170225,50.8127765 L26.2184831,50.8127765 C27.3751685,50.8127765 27.837809,51.3680271 27.837809,52.664447 C27.837809,53.4405282 27.6775281,53.9959458 27.0992697,54.3046411 L28.0425843,57.0914176 L27.0015169,57.0914176 L27.0015169,57.0914176 Z" id="Fill-9" fill="#FFFFFF"></path>
                    <polygon id="Fill-10" fill="#FFFFFF" points="29.2250562 57.0914176 30.2214607 57.0914176 30.2214607 50.8127765 29.2250562 50.8127765"></polygon>
                    <path d="M33.192809,52.3293589 L32.6501124,54.9571106 L33.7355056,54.9571106 L33.192809,52.3293589 Z M34.1802809,57.0914176 L33.9222472,55.8479503 L32.4542697,55.8479503 L32.2051685,57.0914176 L31.1551685,57.0914176 L32.7123034,50.8127765 L33.6822472,50.8127765 L35.2213483,57.0914176 L34.1802809,57.0914176 L34.1802809,57.0914176 Z" id="Fill-11" fill="#FFFFFF"></path>
                    <polyline id="Fill-12" fill="#FFFFFF" points="36.1636517 57.0914176 36.1636517 50.8127765 37.1602247 50.8127765 37.1602247 56.2005779 38.8240449 56.2005779 38.8240449 57.0914176 36.1636517 57.0914176"></polyline>
                    <path d="M43.4851685,51.7032822 L42.8711798,51.7032822 L42.8711798,53.7492235 L43.4851685,53.7492235 C44.0189326,53.7492235 44.0991573,53.2816704 44.0991573,52.7260858 C44.0991573,52.1706682 44.0189326,51.7032822 43.4851685,51.7032822 Z M43.4673034,54.6397291 L42.8711798,54.6397291 L42.8711798,57.0914176 L41.8747753,57.0914176 L41.8747753,50.8127765 L43.4673034,50.8127765 C44.6150562,50.8127765 45.0955618,51.4032731 45.0955618,52.7170655 C45.0955618,53.9872596 44.6684831,54.6397291 43.4673034,54.6397291 L43.4673034,54.6397291 Z" id="Fill-13" fill="#FFFFFF"></path>
                    <polyline id="Fill-14" fill="#FFFFFF" points="48.5470787 57.0914176 48.5470787 54.3398871 47.3103371 54.3398871 47.3103371 57.0914176 46.313764 57.0914176 46.313764 50.8127765 47.3103371 50.8127765 47.3103371 53.4582348 48.5470787 53.4582348 48.5470787 50.8127765 49.5434831 50.8127765 49.5434831 57.0914176 48.5470787 57.0914176"></polyline>
                    <path d="M52.9680337,51.8709932 C52.8790449,51.7296749 52.7280337,51.6327901 52.4876966,51.6327901 C52.2473596,51.6327901 52.1049438,51.7296749 52.0159551,51.8709932 C51.829382,52.1706682 51.7936517,52.8057652 51.7936517,53.9518465 C51.7936517,55.0982619 51.829382,55.7330248 52.0159551,56.0332009 C52.1049438,56.1743521 52.2473596,56.27107 52.4876966,56.27107 C52.7280337,56.27107 52.8790449,56.1743521 52.9680337,56.0332009 C53.1549438,55.7330248 53.1817416,55.0982619 53.1817416,53.9518465 C53.1817416,52.8057652 53.1549438,52.1706682 52.9680337,51.8709932 Z M53.7155056,56.6327178 C53.4487079,56.9325598 53.0925843,57.1619097 52.4876966,57.1619097 C51.8824719,57.1619097 51.5266854,56.9325598 51.2598876,56.6327178 C50.7881461,56.103693 50.7972472,55.1866275 50.7972472,53.9518465 C50.7972472,52.7170655 50.7881461,51.8003341 51.2598876,51.2711422 C51.5266854,50.9713002 51.8824719,50.7421174 52.4876966,50.7421174 C53.0925843,50.7421174 53.4487079,50.9713002 53.7155056,51.2711422 C54.1869101,51.8003341 54.1781461,52.7170655 54.1781461,53.9518465 C54.1781461,55.1866275 54.1869101,56.103693 53.7155056,56.6327178 L53.7155056,56.6327178 Z" id="Fill-15" fill="#FFFFFF"></path>
                    <polyline id="Fill-16" fill="#FFFFFF" points="57.1400562 51.7032822 57.1400562 57.0914176 56.1436517 57.0914176 56.1436517 51.7032822 55.0850562 51.7032822 55.0850562 50.8127765 58.2077528 50.8127765 58.2077528 51.7032822 57.1400562 51.7032822"></polyline>
                    <path d="M61.285618,51.8709932 C61.1967978,51.7296749 61.0452809,51.6327901 60.8049438,51.6327901 C60.5649438,51.6327901 60.4223596,51.7296749 60.3335393,51.8709932 C60.1466292,52.1706682 60.1108989,52.8057652 60.1108989,53.9518465 C60.1108989,55.0982619 60.1466292,55.7330248 60.3335393,56.0332009 C60.4223596,56.1743521 60.5649438,56.27107 60.8049438,56.27107 C61.0452809,56.27107 61.1967978,56.1743521 61.285618,56.0332009 C61.472191,55.7330248 61.4993258,55.0982619 61.4993258,53.9518465 C61.4993258,52.8057652 61.472191,52.1706682 61.285618,51.8709932 Z M62.0329213,56.6327178 C61.7661236,56.9325598 61.41,57.1619097 60.8049438,57.1619097 C60.2000562,57.1619097 59.8441011,56.9325598 59.5773034,56.6327178 C59.1055618,56.103693 59.1146629,55.1866275 59.1146629,53.9518465 C59.1146629,52.7170655 59.1055618,51.8003341 59.5773034,51.2711422 C59.8441011,50.9713002 60.2000562,50.7421174 60.8049438,50.7421174 C61.41,50.7421174 61.7661236,50.9713002 62.0329213,51.2711422 C62.5043258,51.8003341 62.4955618,52.7170655 62.4955618,53.9518465 C62.4955618,55.1866275 62.5043258,56.103693 62.0329213,56.6327178 L62.0329213,56.6327178 Z" id="Fill-17" fill="#FFFFFF"></path>
                    <path d="M65.2708989,57.1619097 C64.6658427,57.1619097 64.3098876,56.9325598 64.0429213,56.6327178 C63.5713483,56.103693 63.5804494,55.1866275 63.5804494,53.9518465 C63.5804494,52.7170655 63.5713483,51.8003341 64.0429213,51.2711422 C64.3098876,50.9713002 64.6658427,50.7421174 65.2708989,50.7421174 C65.7603371,50.7421174 66.1339888,50.9008081 66.4007865,51.1654041 C66.7124157,51.4829526 66.8723596,51.9414853 66.8902247,52.4793634 L65.8936517,52.4793634 C65.8848876,52.1265688 65.8046629,51.6327901 65.2708989,51.6327901 C65.0307303,51.6327901 64.8883146,51.7296749 64.7993258,51.8709932 C64.6124157,52.1706682 64.5768539,52.8057652 64.5768539,53.9518465 C64.5768539,55.0982619 64.6124157,55.7330248 64.7993258,56.0332009 C64.8883146,56.1743521 65.0307303,56.27107 65.2708989,56.27107 C65.697809,56.27107 65.8936517,55.9007359 65.8936517,55.468763 L65.8936517,54.4898916 L65.2708989,54.4898916 L65.2708989,53.6785643 L66.8902247,53.6785643 L66.8902247,55.4159774 C66.8902247,56.5532054 66.2140449,57.1619097 65.2708989,57.1619097" id="Fill-18" fill="#FFFFFF"></path>
                    <path d="M69.7633146,51.7032822 L69.1491573,51.7032822 L69.1491573,53.6256117 L69.7633146,53.6256117 C70.2969101,53.6256117 70.3771348,53.1847856 70.3771348,52.664447 C70.3771348,52.1442754 70.2969101,51.7032822 69.7633146,51.7032822 Z M70.5372472,57.0914176 L69.7095506,54.5162844 L69.1491573,54.5162844 L69.1491573,57.0914176 L68.1525843,57.0914176 L68.1525843,50.8127765 L69.7542135,50.8127765 C70.9107303,50.8127765 71.3735393,51.3680271 71.3735393,52.664447 C71.3735393,53.4405282 71.2132584,53.9959458 70.6351685,54.3046411 L71.5781461,57.0914176 L70.5372472,57.0914176 L70.5372472,57.0914176 Z" id="Fill-19" fill="#FFFFFF"></path>
                    <path d="M74.3088202,52.3293589 L73.7661236,54.9571106 L74.8515169,54.9571106 L74.3088202,52.3293589 Z M75.2966292,57.0914176 L75.0385955,55.8479503 L73.5702809,55.8479503 L73.3213483,57.0914176 L72.2713483,57.0914176 L73.8284831,50.8127765 L74.7982584,50.8127765 L76.3376966,57.0914176 L75.2966292,57.0914176 L75.2966292,57.0914176 Z" id="Fill-20" fill="#FFFFFF"></path>
                    <path d="M78.8903933,51.7032822 L78.2764045,51.7032822 L78.2764045,53.7492235 L78.8903933,53.7492235 C79.4239888,53.7492235 79.504382,53.2816704 79.504382,52.7260858 C79.504382,52.1706682 79.4239888,51.7032822 78.8903933,51.7032822 Z M78.8725281,54.6397291 L78.2764045,54.6397291 L78.2764045,57.0914176 L77.2798315,57.0914176 L77.2798315,50.8127765 L78.8725281,50.8127765 C80.0201124,50.8127765 80.500618,51.4032731 80.500618,52.7170655 C80.500618,53.9872596 80.0737079,54.6397291 78.8725281,54.6397291 L78.8725281,54.6397291 Z" id="Fill-21" fill="#FFFFFF"></path>
                    <polyline id="Fill-22" fill="#FFFFFF" points="83.8808427 57.0914176 83.8808427 54.3398871 82.6441011 54.3398871 82.6441011 57.0914176 81.6475281 57.0914176 81.6475281 50.8127765 82.6441011 50.8127765 82.6441011 53.4582348 83.8808427 53.4582348 83.8808427 50.8127765 84.8774157 50.8127765 84.8774157 57.0914176 83.8808427 57.0914176"></polyline>
                    <polyline id="Fill-23" fill="#FFFFFF" points="87.9908427 54.6308758 87.9908427 57.0914176 86.9941011 57.0914176 86.9941011 54.6308758 85.7664607 50.8127765 86.8695506 50.8127765 87.4924719 53.299377 88.1241573 50.8127765 89.2184831 50.8127765 87.9908427 54.6308758"></polyline>
                    <g id="Group-27" transform="translate(43.988764, 0.000000)">
                        <mask id="mask-2" fill="white">
                            <use xlink:href="#path-1"></use>
                        </mask>
                        <g id="Clip-25"></g>
                        <path d="M8.51898876,0.15317833 C6.39016854,0.15317833 4.66398876,1.86369752 4.66398876,3.97395034 C4.66398876,6.08386907 6.39016854,7.79472235 8.51898876,7.79472235 C10.6481461,7.79472235 12.3741573,6.08386907 12.3741573,3.97395034 C12.3741573,1.86369752 10.6481461,0.15317833 8.51898876,0.15317833 Z M8.51898876,2.03424831 C9.59831461,2.03424831 10.4764045,2.90420767 10.4764045,3.97395034 C10.4764045,5.04352596 9.59831461,5.91365237 8.51898876,5.91365237 C7.43983146,5.91365237 6.56191011,5.04352596 6.56191011,3.97395034 C6.56191011,2.90420767 7.43983146,2.03424831 8.51898876,2.03424831 L8.51898876,2.03424831 Z" id="Fill-24" fill="#FFFFFF" mask="url(#mask-2)"></path>
                        <polyline id="Fill-26" fill="#FFFFFF" mask="url(#mask-2)" points="8.51898876 69.599088 3.27337079 62.4401309 0.0482022472 62.4401309 8.51898876 74 16.9899438 62.4401309 13.7649438 62.4401309 8.51898876 69.599088"></polyline>
                    </g>
                    <polyline id="Fill-28" fill="#FFFFFF" points="5.36713483 5.26719639 18.7818539 5.26719639 18.7818539 2.68087133 0.246910112 2.68087133 6.47814607 11.1843567 9.70331461 11.1843567 5.36713483 5.26719639"></polyline>
                    <polyline id="Fill-29" fill="#FFFFFF" points="99.6485393 5.26719639 95.3125281 11.1843567 98.5375281 11.1843567 104.768933 2.68087133 86.1305056 2.68087133 86.1305056 5.26719639 99.6485393 5.26719639"></polyline>
                    <path d="M24.6729775,4.24840181 C24.6729775,4.24840181 32.7780337,5.35556208 41.6147191,4.33660045 C41.6147191,4.33660045 30.5244944,6.932614 24.6729775,4.24840181 Z M48.7462921,3.1609526 C40.1469101,3.1609526 41.4664045,1.7502754 32.481573,1.7502754 C23.4967416,1.7502754 23.4077528,3.97395034 23.4077528,3.97395034 C23.4077528,3.97395034 23.4967416,6.19779233 32.481573,6.19779233 C41.4664045,6.19779233 40.1469101,4.78711512 48.7462921,4.78711512 L49.324382,3.97395034 L48.7462921,3.1609526 L48.7462921,3.1609526 Z" id="Fill-30" fill="#FFFFFF"></path>
                    <path d="M80.3217978,3.69949887 C80.3217978,3.69949887 72.2167416,2.59250564 63.3800562,3.61146727 C63.3800562,3.61146727 74.4702809,1.01545372 80.3217978,3.69949887 Z M56.2484831,4.78711512 C64.8480337,4.78711512 63.5283708,6.19779233 72.5132022,6.19779233 C81.4982022,6.19779233 81.587191,3.97395034 81.587191,3.97395034 C81.587191,3.97395034 81.4982022,1.7502754 72.5132022,1.7502754 C63.5283708,1.7502754 64.8480337,3.1609526 56.2484831,3.1609526 L55.6703933,3.97395034 L56.2484831,4.78711512 L56.2484831,4.78711512 Z" id="Fill-31" fill="#FFFFFF"></path>
                </g>
            </g>
        </g>
    </g>
</svg>