<?xml version="1.0" encoding="UTF-8"?>
<svg width="85px" height="86px" viewBox="0 0 85 86" version="1.1" xmlns="http://www.w3.org/2000/svg" xmlns:xlink="http://www.w3.org/1999/xlink">
    <!-- Generator: Sketch 45.2 (43514) - http://www.bohemiancoding.com/sketch -->
    <title>phone-call (2)</title>
    <desc>Created with Sketch.</desc>
    <defs></defs>
    <g id="Page-1" stroke="none" stroke-width="1" fill="none" fill-rule="evenodd">
        <g id="Desktop" transform="translate(-352.000000, -3407.000000)">
            <g id="Group-4" transform="translate(352.000000, 3409.000000)">
                <g id="Group-5">
                    <g id="phone-call-(2)">
                        <path d="M65.854636,80.3 C62.5593881,80.3 58.5795171,79.4741942 54.2027247,77.8225825 C44.6073464,74.2050201 34.1675109,67.0551399 24.8065561,57.6942312 C15.4429374,48.3306585 8.29302204,37.8882105 4.672778,28.2928795 C1.38285791,19.5686404 1.3748662,12.4081046 4.65413068,9.13152016 C5.12564149,8.66001166 5.60514401,8.1538726 6.10062995,7.6317502 C9.09219291,4.48569635 12.4726857,0.945386809 16.9533704,1.1052202 C20.0408338,1.23308691 23.0323968,3.15108756 26.0958851,6.96311386 C35.1478272,18.2207121 31.066728,22.2325302 26.3436281,26.8836818 L25.5098265,27.7094876 C24.7372947,28.4820157 23.2774759,32.0596196 36.8580529,45.6401298 C41.2907873,50.0728425 45.0708655,53.3174602 48.0917314,55.280747 C49.9937581,56.5167919 53.3955621,58.3868425 54.7914472,56.9909643 L55.6305766,56.1438473 C60.2764233,51.4314263 64.2882611,47.3636665 75.537923,56.4075724 C79.3499681,59.4710457 81.2653143,62.45993 81.3931816,65.5527061 C81.5769909,70.0307048 78.0100249,73.4191727 74.8612917,76.408057 C74.3418306,76.9035405 73.8356891,77.3830407 73.3641783,77.8518853 C71.7365336,79.4821858 69.1339004,80.3 65.854636,80.3 Z M6.08712217,8.69795461 C8.8129222,5.89497763 11.906265,3.16442046 15.8533704,3.3052202 C18.9408338,3.43308691 21.9323968,5.35108756 24.9958851,9.16311386 C33.9129827,20.2530105 30.0854038,24.3113961 25.454236,28.8762202 C25.0857353,29.2537753 24.7049656,29.6306204 24.3188303,30.0111134 C23.547468,30.9710341 22.6981277,34.7802689 35.7580529,47.8401298 C40.1907873,52.2728425 43.9708655,55.5174602 46.9917314,57.480747 C48.8453628,58.6853419 52.1234216,60.4920896 53.5810581,59.2912359 C53.9557245,58.9113966 54.3268014,58.5366547 54.6984516,58.1736033 C59.2742717,53.5351901 63.3239734,49.6727693 74.437923,58.6075724 C78.2499681,61.6710457 80.1653143,64.65993 80.2931816,67.7527061 C80.4541836,71.6750676 77.7374667,74.7615051 74.9447443,77.4756862 C74.1979766,78.2492346 73.4175705,78.9901716 72.6612917,79.708057 C72.1418306,80.2035405 71.6356891,80.6830407 71.1641783,81.1518853 C69.5365336,82.7821858 66.9339004,83.6 63.654636,83.6 C60.3593881,83.6 56.3795171,82.7741942 52.0027247,81.1225825 C42.4073464,77.5050201 31.9675109,70.3551399 22.6065561,60.9942312 C13.2429374,51.6306585 6.09302204,41.1882105 2.472778,31.5928795 C-0.817142088,22.8686404 -0.825133797,15.7081046 2.45413068,12.4315202 C2.92564149,11.9600117 3.40514401,11.4538726 3.90062995,10.9317502 C4.60481815,10.1911962 5.33055659,9.42879681 6.08712217,8.69795461 Z" id="Combined-Shape" fill="#90D9F8" fill-rule="nonzero"></path>
                        <path d="M68.054636,79.2 C64.7593881,79.2 60.7795171,78.3741942 56.4027247,76.7225825 C46.8073464,73.1050201 36.3675109,65.9551399 27.0065561,56.5942312 C17.6429374,47.2306585 10.493022,36.7882105 6.872778,27.1928795 C3.58285791,18.4686404 3.5748662,11.3081046 6.85413068,8.03152016 C7.32564149,7.56001166 7.80514401,7.0538726 8.30062995,6.5317502 C11.2921929,3.38569635 14.6726857,-0.154613191 19.1533704,0.00522019733 C22.2408338,0.133086908 25.2323968,2.05108756 28.2958851,5.86311386 C37.3478272,17.1207121 33.266728,21.1325302 28.5436281,25.7836818 L27.7098265,26.6094876 C26.9372947,27.3820157 25.4774759,30.9596196 39.0580529,44.5401298 C43.4907873,48.9728425 47.2708655,52.2174602 50.2917314,54.180747 C52.1937581,55.4167919 55.5955621,57.2868425 56.9914472,55.8909643 L57.8305766,55.0438473 C62.4764233,50.3314263 66.4882611,46.2636665 77.737923,55.3075724 C81.5499681,58.3710457 83.4653143,61.35993 83.5931816,64.4527061 C83.7769909,68.9307048 80.2100249,72.3191727 77.0612917,75.308057 C76.5418306,75.8035405 76.0356891,76.2830407 75.5641783,76.7518853 C73.9365336,78.3821858 71.3339004,79.2 68.054636,79.2 Z" id="Combined-Shape" stroke="#000000" stroke-width="2.5" fill="#FFFFFF"></path>
                    </g>
                </g>
            </g>
        </g>
    </g>
</svg>